<svg id="Layer_1" data-name="Layer 1" xmlns="http://www.w3.org/2000/svg" viewBox="0 0 321.5 38.2"><defs><style>.cls-1{fill:#3f3c3d;}</style></defs><title>keystone-text</title><path class="cls-1" d="M383.7,84.3h-7.6L359.4,67.6V84.3h-5.3V47.8h5.3V60L374,47.8h8.3l-19.1,16Z" transform="translate(-354.1 -47.1)"/><path class="cls-1" d="M411.8,84.3H387.9V47.8H411v4.9H393.3v9.1h12.9v5H393.3V79.1h18.6v5.2h-0.1Z" transform="translate(-354.1 -47.1)"/><path class="cls-1" d="M442.1,47.8L430.7,64.7V84.3h-5.3V64.8L414,47.8h6.4L428,59.2l7.7-11.4h6.4Z" transform="translate(-354.1 -47.1)"/><path class="cls-1" d="M464.8,73.7a11.1,11.1,0,0,1-3.5,8.3,12.94,12.94,0,0,1-16,1,11.82,11.82,0,0,1-4.4-6l5-3.4a5.71,5.71,0,0,0,2,4.4,6.74,6.74,0,0,0,4.7,1.8,7.14,7.14,0,0,0,4.8-1.6,5.28,5.28,0,0,0,1.9-4.3,6.06,6.06,0,0,0-1.1-3.5,6.63,6.63,0,0,0-2.9-2.3c-1.2-.4-2.1-0.7-2.9-1s-1.7-.6-2.8-1.1a10.92,10.92,0,0,1-4.8-3.6A9.64,9.64,0,0,1,446,49.8a11,11,0,0,1,12.6-1.3,9.66,9.66,0,0,1,3.7,3.8l-4.5,3.1a4.94,4.94,0,0,0-1.8-2,5.07,5.07,0,0,0-2.8-.7,5.62,5.62,0,0,0-3.5,1.1,3.81,3.81,0,0,0-1.4,3.1,4.15,4.15,0,0,0,.8,2.5,5.24,5.24,0,0,0,2.2,1.6l5.4,1.8a11.29,11.29,0,0,1,5.8,4.3A9.34,9.34,0,0,1,464.8,73.7Z" transform="translate(-354.1 -47.1)"/><path class="cls-1" d="M493.5,52.8H482.2V84.3h-5.3V52.8H465.3V47.9h28.2v4.9Z" transform="translate(-354.1 -47.1)"/><path class="cls-1" d="M529.9,66.2a17.67,17.67,0,0,1-5.5,13.2,18.7,18.7,0,0,1-31.9-13.2A18,18,0,0,1,498,52.9a18.59,18.59,0,0,1,26.4,0A18,18,0,0,1,529.9,66.2Zm-5,0a13.7,13.7,0,1,0-23.4,9.7A13.7,13.7,0,0,0,524.9,66.2Z" transform="translate(-354.1 -47.1)"/><path class="cls-1" d="M566.2,84.3h-5.5l-21.9-28v28h-5.3V47.8H539l21.9,28v-28h5.3V84.3Z" transform="translate(-354.1 -47.1)"/><path class="cls-1" d="M596,84.3H572.1V47.8h23.1v4.9H577.5v9.1h12.9v5H577.5V79.1H596v5.2Z" transform="translate(-354.1 -47.1)"/><path class="cls-1" d="M641.8,66a17.81,17.81,0,0,1-5.2,12.9A17,17,0,0,1,624,84.3H610.9V47.8H624a17.23,17.23,0,0,1,12.6,5.3A18.23,18.23,0,0,1,641.8,66ZM637,66a13.23,13.23,0,0,0-3.8-9.4,12.32,12.32,0,0,0-9.2-3.9h-7.7V79.3h7.8A13,13,0,0,0,637,66Z" transform="translate(-354.1 -47.1)"/><path class="cls-1" d="M675.6,84.3h-5.4V67H650.8V84.3h-5.3V47.8h5.3V62h19.4V47.8h5.4V84.3Z" transform="translate(-354.1 -47.1)"/></svg>