<svg id="Layer_1" data-name="Layer 1" xmlns="http://www.w3.org/2000/svg" viewBox="0 0 105.78 37.8"><defs><style>.cls-1{fill:#3f3c3d;}</style></defs><title>keystone-2017</title><path class="cls-1" d="M719.64,84.66H697.72a5.17,5.17,0,0,1,1-1.91,13.89,13.89,0,0,1,1.91-3.18l7.94-10.48c1.91-2.54,3.18-4.13,3.18-4.76a10.44,10.44,0,0,0,1.27-5.4,6.46,6.46,0,0,0-1.91-4.76,6.24,6.24,0,0,0-4.76-1.59,9.78,9.78,0,0,0-4.13,1A11.21,11.21,0,0,0,698,56.08v-5.4a15.24,15.24,0,0,1,8.89-3.18,9.42,9.42,0,0,1,7.62,3.18,12.08,12.08,0,0,1,3.18,8.26A19.91,19.91,0,0,1,717.1,64a46.62,46.62,0,0,1-2.86,4.76L706,79.58h13.66v5.08Z" transform="translate(-697.72 -47.5)"/><path class="cls-1" d="M758.39,66.56A19.28,19.28,0,0,1,753,79.9a18.2,18.2,0,0,1-13.34,5.4,18,18,0,0,1-13-5.4,18.2,18.2,0,0,1-5.4-13.34,18.72,18.72,0,0,1,5.4-13.34,16.82,16.82,0,0,1,13-5.4A18.45,18.45,0,0,1,758.39,66.56Zm-5.08,0A12.08,12.08,0,0,0,749.18,57a13.77,13.77,0,0,0-9.53-4.13A12.08,12.08,0,0,0,730.12,57,13.77,13.77,0,0,0,726,66.56a13.45,13.45,0,0,0,3.81,9.53,13.2,13.2,0,0,0,9.53,4.13,12.08,12.08,0,0,0,9.53-4.13C751.4,73.23,753.31,70.37,753.31,66.56Z" transform="translate(-697.72 -47.5)"/><path class="cls-1" d="M769.83,84.66h-5.08V55.44l-3.81,2.22v-6L766,48.45h3.49V84.66h0.32Z" transform="translate(-697.72 -47.5)"/><path class="cls-1" d="M803.5,48.45L784.12,84.66h-5.72l16.84-31.45H777.13V48.13H803.5v0.32Z" transform="translate(-697.72 -47.5)"/></svg>